<svg xmlns="http://www.w3.org/2000/svg" viewBox="0 0 1170 350"><defs><style>.a,.ac,.k{fill:#fff;}.b,.r{fill:#c4c4c4;}.c{fill:#a3a3a3;}.d,.m{fill:#cececd;}.e,.l{fill:#ececeb;}.f{fill:#737373;}.g{fill:#6f7173;}.h{fill:#858686;}.i,.s{fill:#8f8f8f;}.ai,.j{fill:#9da1a2;}.k{opacity:0.4;}.k,.n,.p{isolation:isolate;}.aa,.ab,.ac,.ai,.al,.l,.m,.q,.r,.s,.t,.u,.v,.w,.x,.y,.z{fill-rule:evenodd;}.an,.n,.p{fill:#2b2b2b;}.n{opacity:0.2;}.aa,.o{fill:#dddddc;}.p{opacity:0.1;}.af,.q{fill:#594165;}.ah,.t{fill:#c3987b;}.ad,.u{fill:#8b6651;}.aj,.v{fill:#785d88;}.w{fill:#b3889d;}.x{fill:#96637c;}.y{fill:#543042;}.ae,.z{fill:#734d60;}.ab{fill:#dfbda5;}.ag,.al{fill:#9075a0;}.ak{fill:#a688ba;}.am{fill:#e8cab6;}</style></defs><title>intp-logician-personality-header</title><polygon class="q" points="394.81 350.13 399.15 343.06 394.49 331.22 390.4 337.27 391.81 350.13 394.81 350.13"/><polygon class="q" points="448.86 349.91 451.3 340.56 448.01 334.43 444.09 330.91 441.93 338.18 445.35 349.91 448.86 349.91"/><polygon class="l" points="433.07 247.6 478.42 293.58 443.62 227.04 435.82 232.53 433.07 247.6"/><polygon class="r" points="435.82 244.71 478.42 293.58 452.93 323.39 439.75 281.05 435.82 244.71"/><polygon class="s" points="360.48 316.6 452.93 323.39 444.9 302.95 379.64 292.49 360.48 316.6"/><polygon class="t" points="405.43 330.36 406.54 300.98 384.38 300.98 394.49 331.22 402.08 338.04 405.43 330.36"/><polygon class="t" points="454.11 328.56 449.02 306.98 428.08 306.98 444.09 330.91 451.73 340.18 454.11 328.56"/><polygon class="u" points="449.02 306.98 433.07 302.74 424.07 300.98 432.27 313.24 449.02 306.98"/><polygon class="u" points="405.59 326.23 391.84 323.3 393.5 328.26 405.59 326.23"/><polygon class="v" points="444.09 330.91 454.11 328.56 476.02 349.91 455.4 349.91 444.09 330.91"/><polygon class="v" points="394.49 331.22 405.43 330.36 415.96 350.13 394.81 350.13 394.49 331.22"/><polygon class="i" points="419.88 193.38 435.82 244.71 443.62 227.04 446.25 186.18 419.88 193.38"/><polygon class="w" points="334.44 76.9 323.35 105.11 299.84 136.35 307.65 83.83 334.44 76.9"/><polygon class="x" points="326.9 194.39 302.07 177.09 325.26 170.13 333.97 173.31 326.9 194.39"/><polygon class="x" points="334.44 76.9 299.84 136.35 332.85 126.21 334.44 76.9"/><polygon class="y" points="365.86 152.23 326.9 194.39 323.35 137.24 365.86 152.23"/><polygon class="z" points="299.84 136.35 323.35 124.29 341.08 130.57 357.47 140.29 365.86 152.23 299.84 136.35"/><polygon class="y" points="323.35 124.29 355.09 141.09 341.57 120.05 323.35 124.29"/><polygon class="v" points="384.38 238.76 418.16 236.36 434.11 250.58 449.02 306.98 406.54 300.98 384.38 238.76"/><polygon class="aa" points="408.83 157.67 424.38 196.92 446.25 186.18 446.61 180.59 424.38 155.16 408.83 157.67"/><polygon class="ab" points="410.89 60.74 416.53 64.74 439.75 129.38 414.24 140.54 404.19 172.35 379.64 158.93 348.44 121.46 339.46 69.43 391.56 45.83 410.89 60.74"/><polygon class="t" points="404.19 172.35 408.62 163.92 406.85 163.92 394.66 152.37 368.76 87.25 359.27 79.16 339.46 124.91 355.09 141.09 359.4 143.45 365.86 152.23 379.64 166.49 390.6 172.35 404.19 172.35"/><polygon class="u" points="384.38 153.65 406.85 163.92 406.85 163.92 412.42 153.57 414.24 140.54 384.38 153.65"/><polygon class="w" points="359.27 79.16 387.61 69.04 396.6 59.08 391.99 43.3 336.53 67.99 346.37 82.75 359.27 79.16"/><polygon class="u" points="355.09 141.09 359.7 134.66 365.86 152.23 355.09 141.09"/><polygon class="ab" points="355.09 141.09 362.55 130.7 345.34 111.34 339.46 124.91 355.09 141.09"/><polygon class="u" points="347.21 118.52 353.96 126.77 342.85 124.66 347.21 118.52"/><polygon class="ac" points="366.79 134.97 363.4 138.37 356.21 131.16 359.77 127.58 366.79 134.97"/><polygon class="ad" points="416.95 110.19 414.3 115.36 407.89 113.47 416.95 110.19"/><polygon class="ae" points="375.95 90.56 380.69 89.69 383.8 85.81 390.6 85.81 381.5 83.65 375.95 90.56"/><polygon class="ae" points="406.1 81.39 409.74 80.17 412.17 74.43 417.43 74.43 410.39 72.41 406.1 81.39"/><polygon class="af" points="394.12 128.05 403.5 125.54 411.76 128.05 406.85 122.72 403.7 123.66 402.03 122.09 394.12 128.05"/><polygon class="ag" points="394.62 127.92 399.73 129.73 408.83 127.16 403.5 125.54 394.62 127.92"/><polygon class="ah" points="424.1 98.65 414.92 105.11 412.31 100.77 424.1 98.65"/><polygon class="ah" points="383.28 113.47 406.39 109.73 406.27 103.28 383.28 113.47"/><polygon class="ah" points="377.89 98.63 397.33 98.47 394.94 92.43 377.89 98.63"/><polygon class="ah" points="419.59 83.5 414.24 92.05 411.76 86.27 419.59 83.5"/><polygon class="x" points="391.99 43.3 387.61 69.04 410.89 60.74 391.99 43.3"/><polygon class="z" points="345.34 111.34 359.77 127.58 365.83 118.64 350.52 99.37 359.27 79.16 336.53 67.99 323.35 124.29 334.43 124.72 339.46 124.91 345.34 111.34"/><polygon class="l" points="385.68 186.64 383.24 198.08 402.94 207.61 409.95 204.11 396.73 187.69 396.73 187.69 385.68 186.64"/><polygon class="l" points="407.96 160.48 429.11 194.59 437.46 170.13 407.96 160.48"/><polygon class="r" points="424.38 155.16 452.25 136.08 477.7 140.44 446.61 180.59 424.38 155.16"/><polygon class="ai" points="477.7 140.44 480.38 105.23 470.55 98.06 452.25 136.08 477.7 140.44"/><polygon class="l" points="468.44 74.41 460.31 53.01 452.33 55.21 456.4 76.78 448.02 107.14 454.93 112.86 471.27 108.35 487.61 103.85 490.62 95.4 468.44 74.41"/><polygon class="aj" points="487.7 96.1 475.71 84.75 455.15 90.75 450.87 106.24 455.52 110.09 485.68 101.78 487.7 96.1"/><polygon class="ab" points="466.71 76.26 471.85 64.37 483.36 81.82 482.14 87.37 475.7 84.83 466.71 76.26"/><polygon class="t" points="458.85 74.26 467.27 87.21 475.7 84.83 471.85 64.37 458.85 74.26"/><rect class="ak" x="456.71" y="103.06" width="3.18" height="3.18" transform="translate(170.51 476.37) rotate(-65.11)"/><rect class="ak" x="456.42" y="99.07" width="1.37" height="1.37" transform="translate(173.89 472.17) rotate(-65.06)"/><rect class="ak" x="461.65" y="102.76" width="1.37" height="1.37" transform="translate(173.65 479.1) rotate(-65.07)"/><rect class="ak" x="461.65" y="98.74" width="1.37" height="1.37" transform="translate(177.3 476.78) rotate(-65.07)"/><polygon class="al" points="408.62 241.56 449.02 306.78 435.82 244.71 422.71 240.42 408.62 241.56"/><polygon class="q" points="428.19 212.83 424.38 196.95 405.59 203.24 408.62 241.35 408.83 241.58 435.82 244.71 428.19 212.83"/><polygon class="af" points="345.34 111.34 342.23 118.52 339.46 109.22 372.38 96.18 375.95 105 345.34 111.34"/><polygon class="am" points="416.95 110.19 407.89 113.47 397.33 87.11 406.39 83.83 416.95 110.19"/><path class="af" d="M413.9,102.36l22.76-8.28-7.35-18.55L372.38,96.18l7.51,18.53,24.79-9L398.88,91,408,87.67Zm-31.65,7-4.36-10.76,17.05-6.2,4.27,10.77Zm48.93-17.77L416.26,97,411.9,86.28l15-5.43Z"/><polygon class="aa" points="379.64 166.49 398.53 190.59 402.94 207.61 408.62 241.56 405.59 326.23 360.48 316.6 389.61 236.36 360.48 185.6 379.64 166.49"/><polygon class="r" points="408.62 241.56 360.48 316.6 384.38 238.76 397.33 236.36 408.62 241.56"/><polygon class="s" points="409.95 204.13 390.61 207.61 376.34 220.88 384.38 238.76 408.62 241.56 408.62 241.56 409.95 204.13 409.95 204.13"/><polygon class="l" points="379.64 166.49 375.31 190.02 398.53 190.59 391.92 179.3 379.64 166.49"/><polygon class="al" points="404.19 172.35 399.31 180.59 393.15 183.72 379.64 166.49 404.19 172.35"/><polygon class="q" points="404.22 172.36 404.19 172.35 393.15 183.72 398.53 190.59 406.13 184.13 404.22 172.36"/><polygon class="ai" points="360.48 185.6 376.34 220.88 429.11 194.59 414.24 190.08 398.53 190.59 360.48 185.6"/><polygon class="r" points="429.1 194.59 424.38 155.16 418.68 148.38 411.76 148.38 398.53 190.59 429.1 194.59"/><polygon class="t" points="411.76 148.38 417.89 128.25 428.82 132.97 434.11 141.9 424.38 155.16 411.76 148.38"/><polygon class="t" points="417.89 128.25 432.44 123.86 439.75 129.38 430.81 132.69 417.89 128.25"/><polygon class="ab" points="417.89 128.25 439.75 129.38 441.15 139.38 434.11 141.9 417.89 128.25"/><circle class="an" cx="392.76" cy="100.34" r="2.55"/><circle class="an" cx="420.83" cy="89.95" r="2.55"/></svg>